<?xml version="1.0" standalone="no"?>
<!DOCTYPE svg PUBLIC "-//W3C//DTD SVG 20010904//EN"
 "http://www.w3.org/TR/2001/REC-SVG-20010904/DTD/svg10.dtd">
<svg version="1.0" xmlns="http://www.w3.org/2000/svg"
 width="353.000000pt" height="353.000000pt" viewBox="0 0 353.000000 353.000000"
 preserveAspectRatio="xMidYMid meet">
<metadata>
Created by potrace 1.14, written by Peter Selinger 2001-2017
</metadata>
<g transform="translate(0.000000,353.000000) scale(0.100000,-0.100000)"
fill="#000000" stroke="none">
<path d="M1963 3466 c-17 -8 -36 -23 -41 -33 -14 -26 -20 -193 -8 -200 6 -4 8
-3 4 2 -14 15 47 37 116 43 55 4 67 2 61 -8 -5 -8 -4 -11 2 -7 13 8 73 -12 73
-24 0 -5 4 -9 9 -9 5 0 7 12 5 28 -2 15 -5 60 -7 101 -4 65 -7 77 -29 96 -31
27 -135 33 -185 11z"/>
<path d="M1573 3388 c-13 -6 -23 -17 -23 -25 0 -7 -4 -13 -9 -13 -5 0 -8 -30
-6 -67 4 -72 5 -82 23 -126 15 -35 15 -50 2 -42 -6 4 -8 11 -5 16 3 5 -1 6 -9
3 -9 -3 -16 -1 -16 4 0 11 -30 23 -67 28 -32 3 -66 -37 -57 -70 3 -14 10 -26
15 -26 5 0 9 -7 9 -15 0 -8 3 -14 8 -14 19 3 33 -2 28 -10 -3 -5 2 -8 11 -7
10 0 18 -4 18 -11 0 -6 4 -15 8 -20 5 -4 8 -3 7 2 -5 22 1 23 34 10 24 -10 43
-12 67 -5 19 5 52 8 75 7 48 -1 130 23 113 34 -8 4 -5 9 8 13 21 7 71 91 68
114 -2 6 -3 16 -4 22 -2 16 -41 31 -62 25 -29 -10 -69 -53 -69 -76 0 -11 -4
-18 -9 -15 -5 3 -7 20 -4 38 9 73 9 98 1 98 -5 0 -7 4 -4 9 11 18 -7 72 -34
101 -30 32 -74 39 -117 18z"/>
<path d="M1970 3247 c0 -6 -3 -8 -6 -4 -17 17 -32 -27 -37 -104 -3 -46 -6 -84
-7 -84 -1 0 -4 -13 -6 -30 -6 -39 -38 -105 -64 -133 -11 -11 -20 -25 -20 -31
0 -5 -3 -11 -7 -13 -10 -4 -84 -95 -105 -128 -24 -39 -27 -70 -30 -280 l-3
-195 39 2 c22 1 46 -3 55 -10 8 -7 12 -7 8 -1 -8 14 75 13 86 -1 6 -7 10 -6
13 2 4 8 13 9 27 4 12 -4 28 -6 36 -3 8 3 12 -1 9 -9 -3 -9 -18 -13 -44 -12
-21 1 -94 3 -161 5 -78 2 -119 6 -115 13 3 5 -1 5 -9 -1 -8 -6 -21 -11 -29
-11 -39 0 -218 -13 -239 -18 -14 -2 -31 1 -40 8 -9 8 -12 8 -8 1 9 -16 -38
-24 -54 -10 -9 8 -10 8 -5 -1 4 -8 2 -13 -6 -13 -8 0 -20 6 -27 13 -10 10 -11
9 -6 -4 4 -12 -3 -16 -37 -17 -24 -2 -51 -5 -60 -8 -41 -12 -58 -13 -53 -1 4
7 0 4 -8 -5 -11 -14 -16 -15 -27 -5 -10 10 -11 9 -5 -2 6 -11 4 -13 -8 -8 -9
3 -19 2 -22 -4 -4 -5 -10 -7 -15 -4 -5 3 -11 1 -15 -4 -3 -6 -12 -8 -19 -5 -8
3 -27 -1 -43 -8 -35 -18 -55 -17 -61 1 -3 8 0 11 7 7 6 -4 11 -3 11 3 0 5 9 8
20 6 11 -2 20 1 20 7 0 6 3 8 6 5 4 -3 16 -2 27 4 15 9 18 8 11 -3 -6 -11 -5
-11 9 1 9 7 17 10 17 6 0 -4 6 -3 13 2 6 6 19 11 27 11 8 0 26 3 40 6 14 3 39
8 55 12 17 3 38 8 49 11 13 4 17 1 12 -8 -4 -8 0 -5 8 5 10 13 16 15 16 7 0
-9 4 -10 13 -4 13 11 15 11 92 17 49 4 50 5 51 38 0 18 -3 42 -7 53 -6 17 -20
86 -37 185 -2 14 -4 41 -5 61 -2 31 -5 36 -19 28 -23 -12 -31 -11 -22 4 6 9 4
9 -7 2 -17 -12 -39 -13 -58 -1 -10 6 -12 5 -7 -2 4 -8 -1 -12 -13 -13 -12 -1
-33 -2 -48 -3 -16 -1 -32 -4 -38 -7 -5 -3 -23 -5 -40 -5 -16 1 -32 -2 -35 -5
-3 -4 -23 -9 -45 -13 -22 -3 -68 -14 -102 -25 -35 -10 -63 -17 -63 -15 0 3
-10 -2 -23 -11 -13 -8 -35 -16 -50 -17 -15 -1 -27 -6 -27 -10 0 -4 -5 -8 -11
-8 -15 0 -141 -62 -157 -78 -8 -7 -17 -10 -22 -7 -5 3 -10 0 -12 -5 -2 -6 -11
-12 -19 -13 -27 -4 -46 -31 -45 -64 0 -17 4 -29 8 -27 6 4 29 -53 27 -70 0 -5
4 -12 10 -15 6 -4 12 -19 13 -33 1 -15 5 -25 8 -23 3 2 16 -24 29 -57 13 -33
26 -56 30 -51 6 10 101 56 139 67 17 6 22 3 22 -9 0 -11 -5 -15 -15 -11 -8 3
-15 1 -15 -5 0 -6 -7 -9 -15 -5 -8 3 -15 1 -15 -5 0 -6 -7 -8 -16 -5 -8 3 -12
2 -9 -3 5 -9 -20 -22 -39 -20 -5 0 -12 -4 -15 -9 -3 -5 -24 -19 -46 -30 -22
-11 -52 -30 -67 -42 l-26 -22 18 -31 c11 -17 16 -35 13 -40 -3 -6 -2 -7 4 -4
13 8 37 -38 28 -54 -5 -7 -4 -10 2 -6 6 4 19 -5 28 -19 9 -15 12 -23 6 -20 -7
5 -9 1 -5 -8 3 -9 11 -13 17 -9 6 4 7 1 2 -7 -4 -7 -2 -16 5 -20 6 -4 13 -19
13 -33 1 -14 5 -23 10 -20 6 4 11 -15 10 -44 -1 -7 3 -11 7 -8 4 3 11 -10 15
-28 4 -17 8 -34 9 -37 1 -3 4 -9 8 -15 6 -10 30 -106 50 -200 5 -27 14 -58 20
-69 7 -13 6 -16 -2 -11 -7 5 -9 -2 -4 -22 12 -55 17 -67 35 -87 11 -11 17 -26
15 -33 -3 -7 -2 -12 2 -12 24 4 34 -3 28 -18 -4 -10 -4 -15 -1 -11 9 9 95 -73
95 -91 0 -8 3 -12 6 -8 8 8 44 -25 38 -35 -3 -5 -2 -7 3 -6 7 2 91 -49 103
-63 3 -3 13 -8 23 -12 10 -4 15 -11 12 -17 -4 -6 1 -7 11 -3 12 5 15 3 9 -6
-5 -10 -2 -11 14 -6 13 4 21 2 21 -5 0 -6 5 -8 10 -5 5 3 10 1 10 -4 0 -6 3
-10 8 -10 4 1 9 0 12 -1 3 -1 14 -3 25 -5 11 -2 29 -6 40 -9 11 -2 26 -5 33
-5 8 -1 10 -6 6 -13 -6 -10 -5 -10 7 -1 12 9 18 10 27 1 8 -8 15 -8 27 2 12
10 15 10 15 -1 0 -9 3 -10 8 -3 9 13 120 36 136 27 6 -3 8 -3 4 2 -4 4 20 24
52 44 33 20 72 47 88 61 57 54 111 92 121 86 5 -4 12 -3 15 2 2 4 -12 9 -32
10 -96 7 -419 91 -433 114 -3 5 -9 9 -13 8 -13 -3 -76 24 -76 33 0 4 -4 6 -8
3 -5 -3 -23 8 -41 23 -46 40 -27 51 69 42 13 -1 13 -2 0 -11 -8 -5 -10 -10 -5
-10 6 0 17 4 25 10 9 6 19 5 29 -3 8 -7 17 -12 20 -12 3 0 5 -3 4 -6 -1 -3 4
-6 12 -6 8 0 11 5 8 10 -4 7 1 8 13 3 10 -4 27 -9 37 -11 9 -2 23 -7 30 -12 6
-4 4 4 -5 17 -9 14 -21 24 -27 22 -6 -1 -11 2 -11 8 0 6 -3 9 -7 8 -5 -1 -25
6 -47 15 -21 9 -40 17 -41 17 -15 0 -175 83 -175 91 0 5 -5 7 -10 4 -6 -3 -13
1 -16 9 -3 9 -10 14 -14 11 -4 -3 -10 4 -13 14 -3 11 1 22 7 24 13 5 76 1 111
-7 11 -2 22 -5 24 -5 2 -1 -3 -9 -10 -18 -12 -16 -12 -16 7 0 18 15 24 16 35
4 8 -7 20 -12 27 -9 6 2 12 -1 12 -7 0 -6 7 -8 15 -5 8 4 15 1 15 -6 0 -6 4
-9 9 -6 9 6 71 -15 71 -24 0 -3 17 -6 38 -7 35 -2 36 -2 17 12 -11 8 -26 19
-32 25 -7 6 -23 15 -35 20 -24 10 -60 31 -68 40 -3 3 -35 25 -72 49 -79 51
-143 113 -144 141 -2 25 43 40 57 19 6 -10 9 -11 9 -1 0 10 4 10 23 0 12 -7
25 -17 29 -23 4 -5 8 -7 8 -2 0 4 18 -2 41 -13 36 -19 39 -23 27 -38 -12 -15
-11 -16 4 -4 14 12 22 11 48 -4 16 -10 30 -24 30 -31 0 -6 4 -15 10 -18 6 -3
7 1 4 10 -7 16 79 -36 91 -56 4 -5 15 -9 26 -9 14 0 -12 31 -90 108 -106 104
-131 142 -117 178 7 19 45 15 66 -6 14 -14 14 -14 5 0 -10 15 33 -16 46 -33 3
-5 10 -8 15 -8 5 0 19 -9 32 -19 12 -11 25 -20 27 -20 6 0 24 -14 56 -42 10
-10 23 -18 29 -18 5 0 15 -9 22 -20 7 -11 19 -20 27 -20 8 0 11 -3 8 -7 -4 -3
2 -11 12 -17 10 -6 28 -17 39 -24 21 -12 21 -11 8 15 -37 75 -51 131 -41 163
6 18 12 20 38 14 36 -7 67 -31 67 -50 0 -7 8 -18 18 -23 9 -6 13 -11 8 -11 -4
0 4 -16 18 -35 16 -20 24 -41 20 -48 -4 -6 -4 -9 1 -5 9 8 42 -31 37 -44 -1
-5 3 -8 9 -8 5 0 7 -6 3 -12 -4 -7 -3 -10 1 -5 13 11 54 -33 48 -52 -4 -14 -3
-14 6 -1 7 10 13 11 19 4 9 -13 87 -50 125 -59 16 -4 27 -14 27 -24 0 -12 2
-13 9 -3 7 12 49 11 71 -3 5 -3 10 -3 10 2 0 4 36 8 79 8 43 0 77 3 75 6 -6
10 64 21 78 13 6 -4 8 -3 5 3 -8 13 39 27 55 17 7 -4 8 -3 4 4 -7 11 -3 14 27
16 6 1 18 7 25 14 8 7 18 10 23 7 5 -4 9 -1 9 4 0 6 7 11 15 11 8 0 15 5 15
12 0 6 3 8 6 5 4 -4 20 3 35 14 16 11 29 17 29 12 0 -4 4 -3 8 2 14 20 56 50
47 35 -4 -8 2 -5 14 7 12 13 26 23 32 23 6 0 8 4 5 8 -3 5 1 21 9 36 8 15 14
30 13 34 -5 18 14 52 25 45 8 -4 7 -1 -1 9 -9 11 -9 17 -2 20 6 2 12 12 14 21
1 10 8 22 15 26 7 4 11 12 10 17 -4 21 2 35 11 29 5 -3 7 0 4 8 -3 8 2 22 11
30 9 9 15 18 14 19 -5 7 34 78 43 78 5 0 6 5 3 10 -3 6 -1 10 4 10 29 0 4 32
-59 74 -38 25 -73 46 -76 46 -3 0 -28 11 -54 24 -27 13 -51 22 -54 19 -3 -4
-6 -1 -6 6 0 7 -4 10 -9 6 -5 -3 -12 -1 -16 5 -4 6 -11 8 -16 4 -5 -3 -15 -1
-22 4 -7 6 -15 11 -19 11 -5 1 -9 1 -10 2 -2 0 -10 2 -18 4 -8 2 -30 8 -47 14
-18 5 -33 7 -33 4 0 -3 -7 0 -15 7 -8 7 -21 10 -30 7 -8 -4 -17 -1 -21 5 -5 7
-2 8 6 3 9 -5 11 -4 6 4 -6 8 -12 9 -20 2 -7 -6 -15 -8 -19 -5 -8 9 4 35 13
29 14 -9 40 6 33 19 -4 6 -8 76 -8 156 0 80 -4 151 -8 158 -5 7 -3 12 3 12 6
0 9 4 6 8 -10 17 -15 62 -5 57 5 -4 9 -1 9 4 0 6 -4 11 -8 11 -5 0 -9 17 -9
38 -1 53 -33 112 -103 189 -11 13 -32 39 -45 59 -14 20 -25 33 -25 28 -1 -5
-12 14 -25 43 -23 49 -32 93 -41 213 -3 30 -5 60 -6 65 -2 12 -7 13 -105 18
-45 2 -73 0 -73 -6z m14 -1019 c-5 -10 -4 -10 6 -1 8 7 22 8 41 3 16 -5 29 -7
29 -4 0 3 10 0 21 -7 15 -8 19 -8 15 0 -4 6 -2 11 3 11 6 0 11 -5 11 -11 0 -5
5 -7 10 -4 6 3 10 0 10 -7 0 -8 3 -9 8 -3 10 13 32 17 32 6 0 -5 12 -8 26 -5
14 3 23 1 21 -3 -3 -4 15 -8 39 -7 25 0 47 -3 50 -8 3 -4 17 -8 30 -8 16 0 24
-5 21 -12 -2 -7 -9 -12 -15 -11 -5 1 -26 4 -46 6 -20 2 -39 7 -43 12 -5 4 -1
5 7 0 8 -5 12 -5 8 -1 -3 4 -35 9 -70 11 -34 2 -84 8 -110 13 -26 5 -50 7 -53
4 -3 -3 -5 0 -5 6 0 7 -5 12 -11 12 -5 0 -8 -4 -5 -9 4 -5 -2 -8 -11 -6 -10 2
-23 4 -30 4 -14 1 -6 31 9 31 5 0 6 -6 2 -12z m-1144 -120 c0 -5 -7 -8 -15 -4
-8 3 -15 1 -15 -5 0 -6 -8 -8 -19 -4 -10 3 -24 -1 -31 -10 -16 -19 -30 -19
-30 0 0 8 7 15 15 15 8 0 15 5 15 11 0 5 4 8 9 5 5 -4 20 -2 33 3 25 9 38 6
38 -11z"/>
<path d="M1220 3022 c-112 -6 -343 -53 -365 -73 -5 -5 -16 -9 -25 -9 -8 -1
-33 -9 -55 -20 -22 -11 -44 -19 -48 -20 -18 0 -146 -90 -157 -109 -6 -12 -7
-21 -3 -21 4 0 3 -4 -3 -8 -8 -4 -8 -15 -3 -30 l9 -23 29 22 c16 12 34 18 40
14 7 -3 10 -1 9 6 -2 7 11 17 27 23 17 6 32 13 35 17 3 3 32 16 65 30 33 13
62 27 63 32 2 4 7 5 12 2 4 -3 26 2 48 9 22 8 43 12 46 9 3 -4 6 -2 6 3 0 6
10 11 23 12 27 2 72 10 72 12 0 4 61 11 107 13 25 1 44 6 41 10 -2 4 7 6 20 3
14 -2 41 -1 60 4 23 5 39 4 46 -3 7 -7 11 -7 11 -1 0 6 15 10 32 10 25 -1 33
-6 35 -21 2 -11 0 -15 -2 -10 -5 10 -97 10 -165 0 -19 -2 -56 -6 -82 -7 -27
-2 -48 -5 -48 -8 0 -4 -10 -7 -22 -8 -31 -2 -83 -10 -83 -12 0 -1 -8 -4 -50
-14 -11 -2 -32 -9 -46 -14 -15 -6 -30 -8 -33 -5 -3 4 -6 1 -6 -6 0 -7 -4 -10
-8 -7 -5 3 -20 -1 -35 -9 -19 -10 -27 -10 -31 -2 -3 9 -5 9 -5 1 -1 -7 -44
-33 -96 -59 -52 -26 -95 -52 -95 -58 0 -6 -3 -8 -6 -4 -8 7 -64 -47 -64 -62 0
-6 -3 -11 -7 -11 -19 0 -71 -144 -80 -218 l-5 -53 43 23 c24 12 46 26 47 30 2
5 7 6 12 3 5 -3 16 3 26 12 10 10 19 17 21 15 2 -1 17 5 33 13 17 9 30 12 30
8 0 -5 4 -3 8 3 10 14 88 44 96 37 3 -4 6 -2 6 4 0 8 72 34 95 33 3 0 22 7 42
15 21 8 52 17 68 19 17 2 37 6 45 9 27 10 95 21 190 30 14 1 28 7 32 12 5 6 8
5 8 -4 0 -11 3 -11 15 -1 8 7 15 9 15 4 0 -4 5 -3 12 4 15 15 31 16 22 0 -4
-7 -3 -8 4 -4 8 4 8 15 2 31 -6 16 -6 25 0 25 6 0 10 8 10 17 0 28 71 163 98
183 13 11 21 20 16 20 -5 0 -1 7 9 14 10 8 18 18 18 23 -1 4 4 8 9 8 36 0 23
69 -15 82 -21 7 -149 10 -225 5z m206 -109 c-10 -10 -19 5 -10 18 6 11 8 11
12 0 2 -7 1 -15 -2 -18z"/>
<path d="M1635 2987 c-27 -4 -62 -9 -77 -10 -14 -1 -24 -5 -22 -9 3 -4 -7 -14
-20 -23 -20 -13 -23 -19 -13 -30 7 -7 15 -11 20 -8 4 2 7 -3 7 -12 0 -9 5 -13
10 -10 6 3 10 2 10 -4 0 -6 15 -26 33 -46 17 -19 46 -63 63 -96 l32 -62 16 35
c9 19 27 46 39 59 12 13 21 27 20 31 -2 5 1 8 6 8 9 0 80 90 100 128 11 21 9
24 -22 37 -43 18 -136 23 -202 12z"/>
<path d="M2470 2955 c-81 -23 -90 -27 -90 -37 0 -5 -4 -6 -10 -3 -5 3 -10 1
-10 -4 0 -6 -6 -11 -13 -11 -8 0 -22 -9 -31 -19 -17 -19 -17 -21 0 -50 20 -34
47 -47 117 -56 30 -4 45 -10 41 -17 -4 -7 -2 -8 4 -4 14 8 154 -23 147 -33 -2
-5 7 -6 20 -3 14 2 25 0 25 -5 0 -5 6 -10 13 -11 22 -2 42 -7 55 -15 6 -5 12
-5 12 -1 0 4 9 -1 19 -10 15 -13 20 -14 24 -4 4 10 6 10 6 1 1 -7 7 -13 14
-13 8 0 14 -6 14 -14 0 -17 -12 -15 -54 7 -18 10 -36 16 -40 16 -9 -2 -40 8
-65 22 -10 5 -25 9 -34 9 -9 0 -23 8 -31 18 -8 9 -12 11 -8 4 5 -10 0 -11 -22
-6 -15 4 -30 11 -31 16 -2 4 -7 6 -11 4 -3 -3 -36 2 -71 9 -91 20 -93 20 -78
-7 7 -13 15 -25 18 -28 9 -9 14 -39 19 -111 1 -11 18 -21 49 -30 26 -7 48 -12
49 -11 2 0 21 -5 43 -13 22 -8 44 -14 48 -15 6 0 59 -16 122 -36 8 -3 15 -4
15 -3 0 1 11 -4 25 -11 14 -8 29 -13 33 -12 14 4 2 -21 -11 -26 -7 -2 -12 5
-13 15 0 10 -3 12 -6 6 -3 -9 -10 -9 -28 3 -13 9 -26 15 -29 15 -12 -2 -96 23
-96 29 0 3 -16 6 -36 8 -20 1 -41 5 -48 9 -13 9 -18 10 -52 12 -14 0 -22 5
-19 11 3 6 -1 7 -10 4 -8 -4 -22 -1 -30 6 -13 11 -14 10 -10 -1 3 -8 6 -50 8
-94 2 -44 8 -89 15 -100 6 -11 12 -15 12 -10 0 11 40 15 40 5 0 -4 6 -7 13 -8
6 0 23 -3 37 -7 14 -3 30 -7 35 -9 41 -9 125 -40 125 -45 0 -3 10 -7 23 -8 12
0 35 -6 52 -13 21 -8 26 -13 16 -19 -8 -5 -24 -3 -40 5 -14 8 -33 14 -41 14
-8 0 -27 6 -41 14 -22 11 -39 17 -91 31 -5 2 -9 3 -10 5 -3 2 -40 9 -65 12 -7
1 -13 4 -13 7 0 3 -15 7 -33 7 l-34 1 4 -80 c2 -53 -1 -85 -10 -95 -8 -11 -8
-14 0 -9 6 4 14 3 18 -3 4 -6 11 -8 16 -5 5 4 9 2 9 -2 0 -5 14 -10 32 -11 18
-2 35 -6 38 -10 5 -7 15 -10 59 -18 13 -3 37 -12 52 -20 16 -8 32 -15 36 -16
5 0 17 -4 28 -9 11 -4 28 -10 38 -13 11 -3 15 -11 11 -17 -4 -8 -3 -9 5 -5 17
11 53 -3 45 -17 -4 -7 0 -5 9 3 9 8 18 26 20 40 3 14 10 45 17 70 7 25 14 59
17 75 2 17 7 37 10 45 7 19 14 97 16 172 1 31 5 54 8 53 8 -5 4 33 -4 41 -3 4
-2 15 4 25 5 11 6 19 1 19 -5 0 -8 12 -7 28 2 38 -23 148 -47 202 -28 64 -104
134 -168 155 -67 22 -153 26 -210 10z"/>
<path d="M1432 2869 c-21 -23 -49 -62 -63 -87 -13 -26 -26 -49 -29 -52 -3 -3
-7 -16 -8 -30 -2 -14 -7 -29 -11 -35 -9 -11 -6 -112 5 -165 3 -19 7 -49 7 -67
0 -18 4 -30 9 -27 4 3 8 -6 8 -20 0 -13 3 -32 7 -42 5 -13 3 -15 -7 -9 -9 5
-7 0 3 -16 9 -13 17 -36 17 -51 0 -24 4 -28 28 -29 15 0 37 -2 50 -5 13 -2 22
1 22 8 0 9 3 9 12 0 6 -6 18 -8 27 -4 9 5 46 8 83 7 48 0 68 4 68 13 0 6 6 12
13 12 8 0 8 3 2 8 -7 4 -11 75 -10 190 0 101 -3 186 -7 189 -5 2 -8 11 -8 19
0 30 -45 108 -93 160 -73 80 -78 82 -125 33z"/>
<path d="M1390 1436 c0 -2 7 -7 16 -10 8 -3 12 -2 9 4 -6 10 -25 14 -25 6z"/>
<path d="M1290 1309 c0 -5 5 -7 10 -4 6 3 10 8 10 11 0 2 -4 4 -10 4 -5 0 -10
-5 -10 -11z"/>
<path d="M1975 1310 c3 -5 8 -10 11 -10 2 0 4 5 4 10 0 6 -5 10 -11 10 -5 0
-7 -4 -4 -10z"/>
<path d="M2395 1310 c3 -5 8 -10 11 -10 2 0 4 5 4 10 0 6 -5 10 -11 10 -5 0
-7 -4 -4 -10z"/>
<path d="M2253 1275 c0 -8 4 -12 9 -9 5 3 6 10 3 15 -9 13 -12 11 -12 -6z"/>
<path d="M1170 1190 c0 -5 5 -10 11 -10 5 0 7 5 4 10 -3 6 -8 10 -11 10 -2 0
-4 -4 -4 -10z"/>
<path d="M2580 1059 c-57 -20 -186 -56 -230 -64 -14 -2 -41 -7 -60 -10 -53 -9
-137 -17 -212 -18 -38 -1 -68 -5 -68 -9 0 -4 -6 -5 -12 -3 -26 9 -198 13 -204
4 -3 -5 0 -9 5 -9 6 0 11 -7 11 -15 0 -8 -4 -15 -10 -15 -5 0 -9 -3 -8 -7 4
-13 -24 -56 -58 -92 -18 -19 -30 -39 -27 -44 3 -6 8 -5 12 1 3 5 14 8 24 6 9
-1 15 1 12 6 -6 10 43 23 57 14 7 -4 8 -3 4 4 -4 7 -1 12 9 12 8 0 23 4 33 10
30 17 124 40 135 33 5 -3 7 -2 4 4 -3 5 16 14 43 19 27 6 46 6 43 1 -3 -4 5
-3 16 5 18 11 23 11 31 -2 9 -13 10 -13 10 0 0 13 2 13 10 0 13 -21 -15 -62
-65 -93 -23 -15 -47 -27 -52 -27 -6 0 -16 -7 -23 -15 -6 -8 -15 -14 -18 -13
-9 2 -37 -9 -96 -36 -45 -20 -47 -23 -30 -36 11 -9 15 -10 10 -2 -5 8 0 12 18
12 14 0 27 4 31 9 3 6 14 8 25 6 11 -2 22 0 25 4 2 5 16 7 30 6 14 -2 25 1 25
5 0 5 9 7 20 5 11 -2 20 1 20 6 0 6 5 7 11 3 6 -3 15 0 20 7 6 10 9 11 9 2 0
-7 5 -13 11 -13 5 0 7 6 3 13 -5 7 0 6 11 -3 15 -12 17 -12 10 -1 -6 11 -4 13
8 8 10 -4 17 -2 17 5 0 6 6 5 17 -3 9 -8 14 -9 10 -3 -10 18 72 11 84 -7 7
-12 9 -12 9 1 0 13 1 13 10 0 5 -8 10 -18 10 -23 0 -10 -47 -50 -63 -53 -6 -2
-37 -12 -68 -23 -47 -17 -98 -29 -279 -67 -13 -3 -27 -7 -29 -10 -12 -11 16
-16 106 -16 64 0 100 -4 105 -11 6 -9 8 -9 8 1 0 15 106 17 115 2 4 -6 11 -8
16 -5 5 4 9 -1 9 -9 0 -8 4 -18 10 -21 6 -4 7 1 3 11 -4 12 -3 15 5 10 25 -15
10 -40 -30 -51 -5 -2 -9 -3 -10 -5 -9 -7 -94 -17 -218 -25 -41 -3 -86 -7 -100
-9 -14 -1 -32 -4 -40 -4 -35 -4 11 -23 71 -28 55 -5 90 -9 122 -13 5 -1 5 -7
1 -13 -5 -10 -4 -10 6 -1 14 13 50 1 50 -17 0 -53 -349 -62 -596 -14 -100 19
-218 50 -246 65 -13 7 -24 12 -25 11 -9 -5 -63 12 -63 20 0 5 -6 8 -13 7 -18
-3 -153 59 -261 120 -73 42 -203 132 -241 169 -8 6 -18 12 -23 12 -9 0 -39
-88 -34 -102 1 -5 -2 -8 -8 -8 -6 0 -9 -3 -8 -7 0 -5 -1 -15 -5 -23 -3 -8 -11
-33 -18 -55 -7 -22 -19 -56 -27 -75 -9 -19 -16 -39 -18 -45 -4 -21 -77 -200
-86 -212 -7 -9 52 -11 242 -10 193 2 249 -1 246 -10 -3 -7 -1 -15 5 -18 5 -4
9 -3 8 2 -5 26 2 33 20 23 14 -7 21 -6 24 3 3 6 6 3 7 -8 1 -18 2 -18 8 -3 6
16 10 16 35 3 15 -8 25 -10 22 -5 -3 5 -1 11 5 15 5 3 10 -2 11 -12 0 -14 2
-15 7 -3 6 13 36 15 185 15 138 0 176 -3 172 -13 -6 -16 0 -15 19 4 15 14 16
14 17 -3 0 -17 1 -17 7 -1 6 16 10 16 35 3 15 -8 25 -10 22 -5 -3 5 -1 11 4
14 5 4 12 -2 14 -11 4 -17 5 -17 6 -1 1 14 6 16 25 8 13 -5 26 -6 29 -3 3 3
67 6 142 7 103 1 134 -2 131 -11 -3 -7 -1 -15 5 -18 5 -4 9 -3 8 2 -1 4 -1 13
0 18 1 6 133 10 376 10 291 0 374 -3 371 -12 -3 -7 -1 -15 5 -18 5 -4 9 -3 8
2 -4 24 7 28 76 28 55 0 74 -3 71 -12 -3 -7 -1 -15 5 -18 5 -4 9 -3 8 2 -4 24
5 28 60 26 l59 -3 -52 133 c-68 170 -137 367 -129 367 3 0 0 6 -6 13 -6 8 -13
24 -15 38 -3 13 -5 25 -7 27 -1 1 -2 5 -3 10 -1 4 -5 16 -9 27 -3 11 -9 34
-12 50 -8 38 -13 60 -15 60 -3 0 -10 42 -12 77 -2 21 -6 38 -10 38 -5 0 -7 3
-7 8 3 16 -1 32 -8 31 -5 0 -33 -9 -63 -20z"/>
<path d="M1530 790 c0 -5 5 -10 11 -10 5 0 7 5 4 10 -3 6 -8 10 -11 10 -2 0
-4 -4 -4 -10z"/>
<path d="M1410 749 c0 -5 5 -7 10 -4 6 3 10 8 10 11 0 2 -4 4 -10 4 -5 0 -10
-5 -10 -11z"/>
<path d="M1995 191 c-3 -5 -2 -12 3 -15 5 -3 9 1 9 9 0 17 -3 19 -12 6z"/>
<path d="M2315 191 c-3 -5 -2 -12 3 -15 5 -3 9 1 9 9 0 17 -3 19 -12 6z"/>
</g>
</svg>
