<svg width="38" height="27" viewBox="0 0 38 27" fill="none" xmlns="http://www.w3.org/2000/svg">
<rect y="0.0292969" width="38" height="26" rx="4" fill="white"/>
<path d="M16.258 17.4525H14.1094L15.4533 9.16113H17.6018L16.258 17.4525Z" fill="#00579F"/>
<path d="M24.0458 9.36374C23.622 9.19598 22.9498 9.01074 22.1187 9.01074C19.9969 9.01074 18.5027 10.1397 18.4935 11.7538C18.4759 12.9447 19.5633 13.6062 20.3766 14.0032C21.2079 14.409 21.4904 14.6738 21.4904 15.0355C21.482 15.591 20.8187 15.847 20.2001 15.847C19.3423 15.847 18.8827 15.715 18.1842 15.406L17.9013 15.2735L17.6006 17.1347C18.1045 17.3638 19.033 17.5671 19.9969 17.576C22.2513 17.576 23.7191 16.4645 23.7365 14.7444C23.745 13.8005 23.1708 13.0773 21.9329 12.4863C21.1814 12.1069 20.7212 11.8511 20.7212 11.463C20.73 11.1101 21.1105 10.7486 21.9588 10.7486C22.6573 10.7309 23.1705 10.8985 23.5593 11.0661L23.7536 11.1542L24.0458 9.36374Z" fill="#00579F"/>
<path d="M26.9024 14.5152C27.0793 14.0389 27.7602 12.1953 27.7602 12.1953C27.7513 12.213 27.9368 11.7102 28.0429 11.4015L28.193 12.1159C28.193 12.1159 28.5999 14.1006 28.6883 14.5152C28.3525 14.5152 27.3268 14.5152 26.9024 14.5152ZM29.5546 9.16113H27.8926C27.3801 9.16113 26.9907 9.31096 26.7696 9.84907L23.5781 17.4524H25.8326C25.8326 17.4524 26.2038 16.4291 26.2835 16.2087C26.5309 16.2087 28.724 16.2087 29.0422 16.2087C29.1039 16.4998 29.2985 17.4524 29.2985 17.4524H31.2879L29.5546 9.16113Z" fill="#00579F"/>
<path d="M12.3145 9.16113L10.2103 14.8151L9.98036 13.6684C9.59134 12.3453 8.37128 10.9077 7.00977 10.1929L8.93713 17.4437H11.2092L14.5865 9.16113H12.3145Z" fill="#00579F"/>
<path d="M8.25594 9.16113H4.79904L4.76367 9.32868C7.46027 10.0168 9.24617 11.6755 9.97992 13.6693L9.22843 9.85818C9.10471 9.32857 8.7245 9.1786 8.25594 9.16113Z" fill="#FAA61A"/>
</svg>
