<svg width="38" height="27" viewBox="0 0 38 27" fill="none" xmlns="http://www.w3.org/2000/svg">
<rect y="0.0292969" width="38" height="26" rx="4" fill="white"/>
<path fill-rule="evenodd" clip-rule="evenodd" d="M19.2719 18.6158C17.9782 19.7298 16.3 20.4023 14.4663 20.4023C10.3746 20.4023 7.05762 17.0541 7.05762 12.924C7.05762 8.79392 10.3746 5.4458 14.4663 5.4458C16.3 5.4458 17.9782 6.11828 19.2719 7.23225C20.5656 6.11828 22.2438 5.4458 24.0775 5.4458C28.1692 5.4458 31.4862 8.79392 31.4862 12.924C31.4862 17.0541 28.1692 20.4023 24.0775 20.4023C22.2438 20.4023 20.5656 19.7298 19.2719 18.6158Z" fill="#ED0006"/>
<path fill-rule="evenodd" clip-rule="evenodd" d="M19.2715 18.6158C20.8644 17.2442 21.8745 15.2032 21.8745 12.924C21.8745 10.6449 20.8644 8.6039 19.2715 7.23225C20.5652 6.11828 22.2433 5.4458 24.0771 5.4458C28.1688 5.4458 31.4858 8.79392 31.4858 12.924C31.4858 17.0541 28.1688 20.4023 24.0771 20.4023C22.2433 20.4023 20.5652 19.7298 19.2715 18.6158Z" fill="#F9A000"/>
<path fill-rule="evenodd" clip-rule="evenodd" d="M19.272 7.23242C20.8649 8.60407 21.875 10.6451 21.875 12.9242C21.875 15.2033 20.8649 17.2443 19.272 18.6159C17.679 17.2443 16.6689 15.2033 16.6689 12.9242C16.6689 10.6451 17.679 8.60407 19.272 7.23242Z" fill="#FF5E00"/>
</svg>
